,
Brought to you by  http://www.scenetime.com/signup.php
 
 Hottest scene tracker on the net !!!   
 
No fake torrents from scenebalance 
shame on those who comment fake before downloading my torrents

    seed back for speed


 



...................................NFO:.................................................[pre]

*******************************************************************************
                      Ben.Hur.2010.DVDRip.XviD.AC3-PRESTiGE 
*******************************************************************************

-------------------------------------------------------------------------------
                              General Information
-------------------------------------------------------------------------------

TiTLE............: Ben.Hur.2010.DVDRip.XviD.AC3-PRESTiGE 

iMDB.............: http://www.imdb.com/title/tt1421499/

GENRE............: Action | Drama

SOURCE...........: DVD-R TDP MANY THANKS!!

ENCODED by.......: akosipalos

FiLE SiZE........: 1.37GB

SUBS.............: English Subs (If needed)

DURATiON.........: 3h 4mn


ViDEO iNFO:

ID                               : 0
Format                           : MPEG-4 Visual
Format profile                   : Advanced Simple@L5
Format settings, BVOP            : Yes
Format settings, QPel            : No
Format settings, GMC             : No warppoints
Format settings, Matrix          : Custom
Codec ID                         : XVID
Codec ID/Hint                    : XviD
Duration                         : 3h 4mn
Bit rate                         : 606 Kbps
Width                            : 640 pixels
Height                           : 368 pixels
Display aspect ratio             : 16:9
Frame rate                       : 25.000 fps
Color space                      : YUV
Chroma subsampling               : 4:2:0
Bit depth                        : 8 bits
Scan type                        : Progressive
Bits/(Pixel*Frame)               : 0.103
Stream size                      : 800 MiB (57%)
Writing library                  : XviD 58


AUDiO iNFO:

ID                               : 1
Format                           : AC-3
Format/Info                      : Audio Coding 3
Mode extension                   : CM (complete main)
Codec ID                         : 2000
Duration                         : 3h 4mn
Bit rate mode                    : Constant
Bit rate                         : 448 Kbps
Channel(s)                       : 6 channels
Channel positions                : Front: L C R, Side: L R, LFE
Sampling rate                    : 48.0 KHz
Bit depth                        : 16 bits
Stream size                      : 591 MiB (42%)
Alignment                        : Aligned on interleaves
Interleave, duration             : 96 ms (2.40 video frames)
Interleave, preload duration     : 96 ms
Language                         : English



-------------------------------------------------------------------------------
                                 PLOT:
-------------------------------------------------------------------------------


About the struggle between the Roman Empire and its rebellious conquest Judaea, and two best friends caught in a terrible moment in history.


-------------------------------------------------------------------------------
                                 CAST:
-------------------------------------------------------------------------------

* Joseph Morgan as Judah Ben Hur
* Stephen Campbell Moore as Octavius Messala
* Emily VanCamp as Esther
* Hugh Bonneville as Pontius Pilate
* Ray Winstone as Quintus Arrius
* James Faulkner as Marcellus Agrippa
* Alex Kingston as Ruth
* Kristin Kreuk as Tirzah
* Luca Jimnez as Athene
* Ben Cross as Emperor Tiberius
* Kris Holden-Ried as Gaius

-------------------------------------------------------------------------------
                               Release Notes
-------------------------------------------------------------------------------


PRESTiGE - IS LOOKING FOR?: CAMMER'S, AUDIO SUPPLIERS, SYNCER'S, RETAIL
SUPPLIER'S, SILVER'S, SCREENER'S, LINE CAPPER'S

ENCODER'S - ANYTHING AT ALL EMAIL US AT..... prestige@hushmail.me

** ** ** ** ** ** ** ** **

PRESTiGE is the level of respect at which one is regarded by others....RIzE Above Or Sink Below...


-------------------------------------------------------------------------------
                                 GREETZ:
-------------------------------------------------------------------------------


twisted ,bigguy, CTFX, HiTM4N, smelise.paranoid53, mtyy, fifer, akosipalos, DiLLoN, imagine,"the squad" , floridajoe and To All Encoders Past And Present...


-------------------------------------------------------------------------------
Generated with Cool NFO Creator - http://fly.to/coolbeans
-------------------------------------------------------------------------------
[/pre]